<?xml version="1.0" standalone="no"?>
<!DOCTYPE svg PUBLIC "-//W3C//DTD SVG 20010904//EN"
 "http://www.w3.org/TR/2001/REC-SVG-20010904/DTD/svg10.dtd">
<svg version="1.0" xmlns="http://www.w3.org/2000/svg"
 width="866.000000pt" height="650.000000pt" viewBox="0 0 866.000000 650.000000"
 preserveAspectRatio="xMidYMid meet">

<g transform="translate(0.000000,650.000000) scale(0.100000,-0.100000)"
fill="#000000" stroke="none">
<path d="M5913 3878 l-63 -20 0 -643 0 -643 73 23 72 23 3 641 c2 510 0 641
-10 640 -7 -1 -41 -10 -75 -21z"/>
<path d="M3941 3485 c-225 -63 -365 -273 -330 -493 25 -164 114 -285 259 -355
57 -27 78 -32 166 -35 112 -5 183 10 267 55 l47 26 0 89 0 89 -32 -24 c-55
-41 -131 -75 -195 -86 -77 -14 -142 -1 -214 42 -205 123 -193 433 20 531 35
15 66 21 126 21 91 0 157 -24 212 -77 l32 -31 31 67 c16 37 30 72 30 76 0 16
-90 72 -147 92 -76 26 -203 32 -272 13z"/>
<path d="M4985 3487 c-82 -21 -140 -54 -194 -112 -187 -198 -159 -530 59 -690
142 -104 350 -115 513 -27 l47 25 0 90 0 89 -32 -24 c-93 -71 -214 -106 -306
-88 -65 12 -102 31 -154 78 -38 34 -88 119 -88 150 0 9 75 12 341 12 l342 0
-6 88 c-16 245 -166 404 -396 417 -44 3 -97 -1 -126 -8z m208 -157 c64 -24
121 -79 142 -139 8 -24 15 -47 15 -52 0 -5 -117 -9 -260 -9 -292 0 -278 -5
-241 75 54 120 208 176 344 125z"/>
<path d="M6650 3482 c-377 -99 -456 -600 -128 -812 82 -54 166 -74 277 -68 77
5 99 10 165 43 333 164 334 642 1 805 -104 51 -202 61 -315 32z m242 -159 c59
-27 117 -85 148 -148 33 -70 34 -179 1 -252 -48 -108 -156 -176 -277 -176
-169 0 -298 129 -299 298 0 137 79 249 207 291 58 19 161 12 220 -13z"/>
</g>
</svg>
