<?xml version="1.0" standalone="no"?>
<!DOCTYPE svg PUBLIC "-//W3C//DTD SVG 20010904//EN"
 "http://www.w3.org/TR/2001/REC-SVG-20010904/DTD/svg10.dtd">
<svg version="1.0" xmlns="http://www.w3.org/2000/svg"
 width="1250.000000pt" height="628.000000pt" viewBox="0 0 1250.000000 628.000000"
 preserveAspectRatio="xMidYMid meet">

<g transform="translate(0.000000,628.000000) scale(0.100000,-0.100000)"
fill="#000000" stroke="none">
<path d="M4600 4136 c-493 -104 -837 -552 -807 -1051 9 -136 38 -250 97 -374
103 -214 253 -368 465 -473 146 -73 272 -102 445 -101 199 0 363 47 529 150
90 56 226 183 287 269 59 82 129 232 155 329 27 102 37 314 19 422 -61 381
-341 696 -717 809 -76 23 -110 27 -248 30 -109 2 -181 -1 -225 -10z m288 -72
c155 -64 290 -322 343 -659 21 -130 16 -437 -9 -575 -53 -294 -170 -516 -313
-595 -51 -28 -60 -30 -154 -28 -332 5 -649 214 -800 528 -70 144 -89 232 -89
410 0 114 4 166 18 215 75 272 220 467 446 600 179 106 438 154 558 104z m314
-157 c172 -168 273 -420 285 -713 11 -278 -61 -532 -209 -728 -46 -61 -170
-176 -190 -176 -4 0 13 31 38 70 261 403 251 1205 -19 1599 l-30 44 32 -19
c18 -10 60 -45 93 -77z m117 19 c192 -129 341 -348 393 -580 27 -122 21 -342
-11 -456 -48 -165 -161 -347 -278 -447 -63 -54 -162 -123 -177 -123 -5 0 13
24 41 53 67 71 107 132 158 240 198 418 132 984 -150 1295 -31 34 -54 62 -50
62 4 0 37 -20 74 -44z"/>
<path d="M8160 3304 l0 -106 -31 26 c-62 53 -166 26 -213 -54 -26 -45 -28
-160 -3 -207 45 -85 155 -109 221 -48 l26 24 0 -24 c0 -23 4 -25 50 -25 l50 0
0 260 0 260 -50 0 -50 0 0 -106z m-17 -155 c25 -31 24 -128 -4 -163 -27 -34
-88 -37 -118 -5 -45 48 -31 167 21 189 33 14 80 4 101 -21z"/>
<path d="M6210 3135 l0 -247 128 4 c113 3 132 6 172 28 24 14 58 44 74 68 26
37 30 52 34 130 4 81 2 91 -25 142 -24 46 -38 60 -86 84 -50 26 -69 29 -177
34 l-120 5 0 -248z m225 141 c47 -20 67 -55 72 -129 7 -104 -37 -162 -135
-174 l-52 -6 0 162 0 161 40 0 c22 0 56 -6 75 -14z"/>
<path d="M6744 3231 c-91 -56 -100 -260 -14 -321 57 -41 116 -38 169 6 l31 26
0 -26 c0 -25 3 -26 50 -26 l50 0 0 175 0 175 -50 0 c-44 0 -50 -2 -50 -21 0
-20 -1 -20 -31 5 -38 32 -108 36 -155 7z m139 -60 c33 -13 51 -60 45 -123 -6
-61 -32 -88 -83 -88 -47 0 -75 38 -75 101 0 93 44 136 113 110z"/>
<path d="M7178 3230 c-64 -34 -83 -73 -83 -166 0 -72 3 -84 27 -116 84 -110
276 -79 313 50 6 20 3 22 -39 22 -37 0 -46 -4 -51 -21 -17 -53 -120 -55 -144
-3 -16 36 -14 116 5 142 33 48 114 48 129 1 5 -15 16 -19 56 -19 l49 0 -15 37
c-9 20 -21 43 -28 51 -36 44 -155 55 -219 22z"/>
<path d="M7549 3227 c-50 -33 -74 -88 -73 -167 1 -99 43 -161 120 -176 45 -8
76 0 113 32 l31 26 0 -26 c0 -24 3 -26 45 -26 l45 0 0 175 0 175 -45 0 c-39 0
-45 -3 -45 -21 0 -20 -1 -20 -31 5 -41 35 -111 36 -160 3z m154 -67 c46 -36
48 -139 5 -180 -29 -27 -81 -26 -107 1 -42 45 -35 151 12 184 29 21 59 19 90
-5z"/>
<path d="M8410 3229 c-69 -40 -103 -124 -86 -214 9 -48 68 -112 114 -125 89
-24 187 3 216 59 23 44 20 51 -24 51 -28 0 -46 -7 -64 -25 -39 -39 -107 -31
-131 16 -30 57 -27 59 111 59 l126 0 -4 53 c-8 96 -67 147 -170 147 -35 0 -65
-7 -88 -21z m147 -63 c7 -6 14 -22 15 -36 3 -25 2 -25 -74 -28 -85 -3 -92 3
-62 46 28 40 88 49 121 18z"/>
</g>
</svg>
